<?xml version="1.0" encoding="UTF-8" standalone="no"?>
<!-- Generator: Adobe Illustrator 25.2.1, SVG Export Plug-In . SVG Version: 6.00 Build 0)  -->

<svg
   xmlns:dc="http://purl.org/dc/elements/1.1/"
   xmlns:cc="http://creativecommons.org/ns#"
   xmlns:rdf="http://www.w3.org/1999/02/22-rdf-syntax-ns#"
   xmlns:svg="http://www.w3.org/2000/svg"
   xmlns="http://www.w3.org/2000/svg"
   xmlns:sodipodi="http://sodipodi.sourceforge.net/DTD/sodipodi-0.dtd"
   xmlns:inkscape="http://www.inkscape.org/namespaces/inkscape"
   version="1.1"
   id="Layer_1"
   x="0px"
   y="0px"
   viewBox="0 0 600 600"
   style="enable-background:new 0 0 600 600;"
   xml:space="preserve"
   sodipodi:docname="stade.svg"
   inkscape:version="0.92.3 (2405546, 2018-03-11)"><metadata
   id="metadata309"><rdf:RDF><cc:Work
       rdf:about=""><dc:format>image/svg+xml</dc:format><dc:type
         rdf:resource="http://purl.org/dc/dcmitype/StillImage" /></cc:Work></rdf:RDF></metadata><defs
   id="defs307" /><sodipodi:namedview
   pagecolor="#ffffff"
   bordercolor="#666666"
   borderopacity="1"
   objecttolerance="10"
   gridtolerance="10"
   guidetolerance="10"
   inkscape:pageopacity="0"
   inkscape:pageshadow="2"
   inkscape:window-width="1920"
   inkscape:window-height="1027"
   id="namedview305"
   showgrid="false"
   inkscape:zoom="1.5733333"
   inkscape:cx="343.46283"
   inkscape:cy="275.89707"
   inkscape:window-x="1912"
   inkscape:window-y="-8"
   inkscape:window-maximized="1"
   inkscape:current-layer="Layer_1" />
<style
   type="text/css"
   id="style2">
	.st0{fill:#EA5E5E;}
</style>
<path
   class="st0"
   d="M408.1,318L408.1,318c3.5,2.3,8.1,1.3,10.3-2.3c5-8.2,8.1-17.7,8.6-27.9h-14.8c-0.5,7.4-2.8,14.2-6.4,20.2  C403.8,311.4,404.8,315.8,408.1,318z"
   id="t1" />
<path
   class="st0"
   d="M287.6,240.9l-1.2-14.8h-38.2c-1,0-2.1,0-3.1,0.1l4.5,14.7H287.6z"
   id="t6" />
<path
   class="st0"
   d="M246.8,240.9l-4.4-14.5c-11.8,1.1-22.5,5.8-31.3,12.8l10.5,10.5C228.7,244.5,237.4,241.2,246.8,240.9z"
   id="t7" />
<path
   class="st0"
   d="M402.5,257.3l12.1-8.6c-9.3-11.8-23-20-38.6-22.1l-4.4,14.4C384.1,242,395.1,248.1,402.5,257.3z"
   id="t3" />
<path
   class="st0"
   d="M251.1,329l-4.5,14.8c0.5,0,1,0,1.5,0h38.6L288,329H251.1z"
   id="t12" />
<polygon
   class="st0"
   points="327.9,240.9 329.2,226.1 288.9,226.1 290.1,240.9 "
   id="t5" />
<path
   class="st0"
   d="M368.3,329h-38.2l1.2,14.8h37c3.6,0,7.1-0.3,10.5-0.9l-8-13.9C370,329,369.1,329,368.3,329z"
   id="t14" />
<path
   class="st0"
   d="M219.7,251.4l-10.5-10.5c-8.6,7.6-15,17.7-18,29.2l14.5,3.1C208.1,264.6,213,257,219.7,251.4z"
   id="t8" />
<path
   class="st0"
   d="M248.1,329c-8.5,0-16.5-2.4-23.3-6.7L214.2,333c8.5,6.1,18.8,9.9,29.8,10.7l4.4-14.6H248.1z"
   id="t11" />
<path
   class="st0"
   d="M204.1,285c0-3.2,0.3-6.3,1-9.3l-14.5-3.1c-0.9,4-1.3,8.1-1.3,12.4c0,6.1,0.9,11.9,2.6,17.4l14.5-3.1  C204.9,294.8,204.1,290,204.1,285z"
   id="t9" />
<path
   class="st0"
   d="M212.1,331.5l10.6-10.6c-6.7-4.8-12.1-11.4-15.3-19.2l-14.6,3.1C196.6,315.4,203.4,324.7,212.1,331.5z"
   id="t10" />
<path
   class="st0"
   d="M368.3,240.9c0.2,0,0.5,0,0.7,0l4.4-14.6c-1.7-0.1-3.4-0.2-5.2-0.2h-36.6l-1.2,14.8H368.3z"
   id="t4" />
<polygon
   class="st0"
   points="290.6,329 289.3,343.8 328.7,343.8 327.5,329 "
   id="t13" />
<path
   class="st0"
   d="M412.4,285c0,0.1,0,0.2,0,0.3h14.8c0-0.1,0-0.2,0-0.3c0-12.7-4.1-24.5-11-34.2l-12.1,8.5  C409.3,266.6,412.4,275.4,412.4,285z"
   id="t2" />
<path
   class="st0"
   d="M373.6,328.7l7.9,13.6c8.9-2,17-6.1,23.9-11.7c3.9-3.1,3.5-9.1-0.7-11.9l0,0c-2.7-1.7-6.2-1.6-8.6,0.4  C389.8,324.3,382,327.7,373.6,328.7z"
   id="t15" />
<path
   class="st0"
   d="M368.4,345.6h-36.9l1.2,14.8h35.7c6.6,0,13-0.9,19.1-2.5l-7.7-13.4C376.1,345.2,372.3,345.6,368.4,345.6z"
   id="t29" />
<path
   class="st0"
   d="M416.1,247.7l12.1-8.5c-11.4-14.8-28.1-25.3-47.2-28.5l-4.3,14.3C392.6,227.1,406.6,235.5,416.1,247.7z"
   id="t18" />
<path
   class="st0"
   d="M382.4,343.9l7.6,13.2c11.4-3.4,21.6-9.4,30-17.4c3.5-3.3,3-9-1-11.6h0c-2.9-1.9-6.7-1.5-9.2,0.9  C402.3,336.2,392.9,341.4,382.4,343.9z"
   id="t30" />
<path
   class="st0"
   d="M368.4,224.4c1.9,0,3.8,0.1,5.6,0.3l4.4-14.4c-3.3-0.4-6.6-0.7-10-0.7h-35.3l-1.2,14.8H368.4z"
   id="t19" />
<path
   class="st0"
   d="M429,285c0,0.1,0,0.2,0,0.3h14.8c0-0.1,0-0.2,0-0.3c0-16.3-5.2-31.4-14.1-43.8l-12.1,8.5  C424.8,259.7,429,271.8,429,285z"
   id="t17" />
<path
   class="st0"
   d="M422,327.1L422,327.1c3.5,2.3,8.1,1.2,10.3-2.3c6.7-10.8,10.8-23.4,11.3-36.9h-14.8c-0.5,10.6-3.8,20.5-9,29  C417.7,320.4,418.6,324.9,422,327.1z"
   id="t16" />
<path
   class="st0"
   d="M248.1,345.6c-0.6,0-1.3,0-1.9,0l-4.4,14.5c2.1,0.2,4.2,0.3,6.3,0.3h37.3l1.2-14.8H248.1z"
   id="t27" />
<path
   class="st0"
   d="M207.9,239.6l-10.5-10.5c-10.9,9.9-18.9,22.8-22.5,37.5l14.5,3.1C192.5,257.9,199,247.5,207.9,239.6z"
   id="t23" />
<path
   class="st0"
   d="M212.9,334.3l-10.6,10.6c10.5,8,23,13.3,36.8,15l4.4-14.4C232.1,344.6,221.7,340.6,212.9,334.3z"
   id="t26" />
<path
   class="st0"
   d="M190.9,305.2l-14.6,3.1c4.5,13.8,12.9,25.9,23.9,35l10.5-10.5C201.8,325.7,194.8,316.2,190.9,305.2z"
   id="t25" />
<path
   class="st0"
   d="M175.6,305.8l14.5-3.1c-1.7-5.6-2.7-11.6-2.7-17.8c0-4.4,0.5-8.6,1.4-12.7l-14.5-3.1  c-1.1,5.1-1.7,10.4-1.7,15.8C172.7,292.2,173.7,299.2,175.6,305.8z"
   id="t24" />
<path
   class="st0"
   d="M248.1,224.4h38.1l-1.2-14.8h-36.9c-2.7,0-5.3,0.1-7.9,0.4l4.4,14.5C245.7,224.4,246.9,224.4,248.1,224.4z"
   id="t21" />
<polygon
   class="st0"
   points="329.3,224.4 330.6,209.6 287.5,209.6 288.8,224.4 "
   id="t20" />
<polygon
   class="st0"
   points="289.2,345.6 288,360.4 330.1,360.4 328.9,345.6 "
   id="t28" />
<path
   class="st0"
   d="M241.9,224.7l-4.4-14.4c-14.4,2-27.5,8.1-38.1,17.1l10.5,10.5C218.8,230.7,229.9,225.9,241.9,224.7z"
   id="t22" />
<path
   class="st0"
   d="M390.9,358.7l7.6,13.1c13-4.5,24.8-11.9,34.8-21.9c0.4-0.4,0.7-0.8,1.1-1.1c3.2-3.3,2.6-8.8-1.3-11.4h0  c-3-2-6.9-1.5-9.4,1.1C414.8,347.8,403.5,354.8,390.9,358.7z"
   id="t45" />
<polygon
   class="st0"
   points="287.8,362 286.6,376.8 331.5,376.8 330.2,362 "
   id="t43"
   inkscape:label="#t43" />
<path
   class="st0"
   d="M435.8,336.1L435.8,336.1c3.5,2.3,8.2,1.3,10.4-2.3c8.6-13.7,13.5-29.4,14-45.9h-14.8c-0.5,14-4.8,27-11.8,38.1  C431.4,329.4,432.4,333.9,435.8,336.1z"
   id="t31" />
<path
   class="st0"
   d="M248.1,362c-2.3,0-4.6-0.1-6.9-0.3l-4.4,14.4c3.7,0.4,7.4,0.7,11.2,0.7H284l1.2-14.8H248.1z"
   id="t42" />
<path
   class="st0"
   d="M368.4,362h-35.5l1.2,14.8h34.3c9.5,0,18.8-1.4,27.6-4.2l-7.6-13.2C382,361.1,375.3,362,368.4,362z"
   id="t44"
   inkscape:label="#t44" />
<path
   class="st0"
   d="M174.8,308.6l-14.6,3.1c4.3,14.3,12.1,27.3,23,38.2c1.8,1.8,3.6,3.4,5.5,5l10.5-10.5  C187.9,335.2,179.3,322.8,174.8,308.6z"
   id="t40" />
<path
   class="st0"
   d="M201.2,346l-10.6,10.6c12.7,10.2,27.6,16.8,43.6,19.2l4.4-14.3C224.6,359.7,211.8,354.2,201.2,346z"
   id="t41" />
<path
   class="st0"
   d="M158.8,263.3l14.5,3.1c3.7-15,11.9-28.3,23-38.3l-10.5-10.5c-0.9,0.8-1.8,1.7-2.7,2.6  C171.1,232.2,162.8,247,158.8,263.3z"
   id="t38" />
<path
   class="st0"
   d="M248.1,208h36.7l-1.2-14.8h-35.5c-4.3,0-8.6,0.3-12.8,0.9l4.4,14.4C242.4,208.1,245.2,208,248.1,208z"
   id="t36" />
<path
   class="st0"
   d="M237.1,208.7l-4.3-14.3c-16.7,2.8-32.1,10.1-45,21.3l10.5,10.5C209,217.1,222.4,210.9,237.1,208.7z"
   id="t37" />
<path
   class="st0"
   d="M445.4,285c0,0.1,0,0.2,0,0.3h14.8c0-0.1,0-0.2,0-0.3c0-19.4-6-37.9-17-53.3l-12.1,8.6  C440.1,252.9,445.4,268.3,445.4,285z"
   id="t32" />
<polygon
   class="st0"
   points="330.7,208 331.9,193.2 286.1,193.2 287.4,208 "
   id="t35" />
<path
   class="st0"
   d="M429.5,238.2l12.1-8.6c-2.5-3.3-5.3-6.5-8.3-9.5c-13.2-13.2-29.6-21.8-47.6-25.3l-4.3,14.3  C400.9,212.4,417.9,223.1,429.5,238.2z"
   id="t33" />
<path
   class="st0"
   d="M368.4,208c3.6,0,7,0.2,10.5,0.7l4.3-14.3c-4.9-0.8-9.8-1.2-14.8-1.2h-33.9l-1.2,14.8H368.4z"
   id="t34" />
<path
   class="st0"
   d="M171,285c0-5.5,0.6-10.9,1.7-16.2l-14.5-3.1c-1.3,6.3-2,12.7-2,19.2c0,8.3,1.1,16.5,3.2,24.3l14.5-3.1  C172.1,299.4,171,292.3,171,285z"
   id="t39" />
<path
   class="st0"
   d="M368.3,191.6c5.2,0,10.3,0.4,15.3,1.3l4.3-14.3c-6.4-1.2-13-1.8-19.7-1.8h-32.4l-1.2,14.8H368.3z"
   id="t49" />
<path
   class="st0"
   d="M461.7,285c0,0.1,0,0.2,0,0.3h14.8c0-0.1,0-0.2,0-0.3c0-22.8-7-44.5-20-62.7l-12.1,8.6  C455.2,246.1,461.7,264.8,461.7,285z"
   id="t47" />
<path
   class="st0"
   d="M399.2,373.1l7.5,13c14.1-5.4,27-13.7,38-24.7c1.2-1.2,2.4-2.5,3.6-3.8c3.1-3.4,2.5-8.7-1.4-11.2h0  c-3-2-7.1-1.5-9.5,1.2C427.1,359,414,367.9,399.2,373.1z"
   id="t60" />
<path
   class="st0"
   d="M449.4,345L449.4,345c3.4,2.3,8.1,1.3,10.3-2.2c10.4-16.3,16.1-35.2,16.7-54.9h-14.8  c-0.5,17.2-5.7,33.3-14.4,47C445,338.3,446.1,342.8,449.4,345z"
   id="t46" />
<path
   class="st0"
   d="M442.8,228.8l12.1-8.6c-3.1-4.1-6.5-8-10.1-11.7c-15.1-15.1-33.8-25.2-54.3-29.4l-4.3,14.2  C409.2,197.8,429.2,210.8,442.8,228.8z"
   id="t48" />
<path
   class="st0"
   d="M186.7,214.8c12.7-11.1,28.3-18.8,45.6-21.8l-4.3-14.3c-19.2,3.6-37,12.3-51.8,25.5L186.7,214.8z"
   id="t52" />
<path
   class="st0"
   d="M248.2,191.6h35.3l-1.2-14.8h-34.1c-6,0-11.9,0.5-17.7,1.4l4.3,14.3C239.2,191.9,243.6,191.6,248.2,191.6z"
   id="t51" />
<polygon
   class="st0"
   points="332.1,191.6 333.3,176.8 284.8,176.8 286,191.6 "
   id="t50" />
<path
   class="st0"
   d="M184.8,216.5L174.3,206c-0.9,0.8-1.8,1.7-2.6,2.5c-14.4,14.4-24.2,32.1-28.8,51.4l14.5,3.1  C161.8,244.8,171.5,228.8,184.8,216.5z"
   id="t53" />
<path
   class="st0"
   d="M154.8,285c0-6.7,0.7-13.2,2.1-19.5l-14.5-3.1c-1.6,7.3-2.4,14.9-2.4,22.6c0,9.5,1.2,18.7,3.6,27.6l14.5-3.1  C155.9,301.7,154.8,293.5,154.8,285z"
   id="t54" />
<path
   class="st0"
   d="M158.8,312l-14.5,3.1c5,17.3,14.3,33.2,27.4,46.3c1.8,1.8,3.6,3.4,5.4,5l10.5-10.5  C174.2,344.5,164,329.3,158.8,312z"
   id="t55" />
<path
   class="st0"
   d="M368.3,378.4h-34.1l1.2,14.8h32.9c12.5,0,24.6-2.1,36-6.1l-7.6-13.1C387.8,376.8,378.2,378.4,368.3,378.4z"
   id="t59" />
<polygon
   class="st0"
   points="286.5,378.4 285.2,393.1 332.8,393.1 331.6,378.4 "
   id="t58" />
<path
   class="st0"
   d="M248.2,378.4c-4,0-7.9-0.3-11.8-0.7l-4.4,14.3c5.3,0.8,10.7,1.2,16.1,1.2h34.5l1.2-14.8H248.2z"
   id="t57" />
<path
   class="st0"
   d="M189.6,357.6L179,368.2c14.6,12.2,31.9,20.2,50.4,23.4l4.3-14.3C217.2,374.7,202.1,367.7,189.6,357.6z"
   id="t56" />
<path
   class="st0"
   d="M463.2,354L463.2,354c3.5,2.3,8.1,1.3,10.3-2.2c12.1-19,18.9-40.9,19.4-63.9h-14.8  c-0.5,20.5-6.7,39.6-17.1,55.9C458.8,347.2,459.8,351.8,463.2,354z"
   id="t61" />
<path
   class="st0"
   d="M368.4,394.7h-32.9l1.2,14.8h31.6c15.3,0,30.2-2.8,44.2-8l-7.5-13C393.6,392.5,381.3,394.7,368.4,394.7z"
   id="t74" />
<polygon
   class="st0"
   points="285.1,394.7 283.9,409.5 334.2,409.5 333,394.7 "
   id="t73" />
<polygon
   class="st0"
   points="333.4,175.3 334.7,160.5 283.4,160.5 284.7,175.3 "
   id="t65" />
<path
   class="st0"
   d="M368.4,175.3c6.8,0,13.5,0.6,20,1.8l4.3-14.2c-7.9-1.6-16.1-2.4-24.3-2.4h-31.2l-1.2,14.8H368.4z"
   id="t64" />
<path
   class="st0"
   d="M456.2,219.2l12.1-8.6c-3.6-4.8-7.5-9.4-11.9-13.7c-17.1-17.1-38.2-28.5-61.2-33.6l-4.3,14.2  C417.5,183.2,440.5,198.3,456.2,219.2z"
   id="t63"
   inkscape:label="#t63" />
<path
   class="st0"
   d="M478.1,285c0,0.1,0,0.2,0,0.3h14.8c0-0.1,0-0.2,0-0.3c0-26.3-8.1-51.3-23.1-72.2l-12.1,8.6  C470.6,239.3,478.1,261.3,478.1,285z"
   id="t62"
   inkscape:label="#t62" />
<path
   class="st0"
   d="M248,394.7c-5.6,0-11.1-0.4-16.4-1.2l-4.3,14.3c6.8,1.1,13.7,1.7,20.8,1.7h33.3l1.2-14.8H248z"
   id="t72" />
<path
   class="st0"
   d="M225.7,162.5l4.3,14.3c5.8-1,11.8-1.5,18-1.5h34.1l-1.2-14.8H248C240.4,160.5,233,161.2,225.7,162.5z"
   id="t66" />
<path
   class="st0"
   d="M173.2,204.9l-10.5-10.5c-0.9,0.9-1.8,1.7-2.7,2.6c-16.6,16.6-28,37.1-33.2,59.5l14.5,3.1  C146.4,238.2,157.7,219.3,173.2,204.9z"
   id="t68" />
<path
   class="st0"
   d="M227.5,177.2l-4.3-14.2c-21.8,4.4-41.9,14.5-58.6,29.6l10.5,10.5C189.6,190.1,207.6,181,227.5,177.2z"
   id="t67" />
<path
   class="st0"
   d="M138.3,285c0-7.9,0.8-15.5,2.4-23l-14.5-3.1c-1.8,8.5-2.7,17.2-2.7,26c0,10.6,1.3,21,3.9,31.1l14.5-3.1  C139.6,304,138.3,294.7,138.3,285z"
   id="t69" />
<path
   class="st0"
   d="M177.9,369.3l-10.5,10.5c16.5,14.1,36.2,23.5,57.3,27.5L229,393C209.8,389.7,192.3,381.3,177.9,369.3z"
   id="t71" />
<path
   class="st0"
   d="M142.6,315.5l-14.5,3.1c5.7,20.4,16.5,39.1,31.9,54.5c1.8,1.8,3.6,3.5,5.5,5.1l10.5-10.5  C160.3,354,148.5,335.9,142.6,315.5z"
   id="t70" />
<path
   class="st0"
   d="M407.5,387.5l7.5,13c15.3-6.2,29.4-15.4,41.4-27.5c2.1-2.1,4.1-4.2,6-6.4c2.9-3.4,2.1-8.6-1.6-11v0  c-3.1-2-7.2-1.4-9.7,1.4C439.5,370.4,424.5,381,407.5,387.5z"
   id="t75" />
<path
   class="st0"
   d="M415.8,401.9l7.5,13c16.6-7,31.8-17.2,44.9-30.3c2.9-2.9,5.6-5.9,8.2-8.9c2.9-3.4,2.1-8.5-1.7-11l0,0  c-3.1-2-7.3-1.5-9.7,1.4C451.9,381.7,435.1,394.1,415.8,401.9z"
   id="t90" />
<path
   class="st0"
   d="M368.7,411h-31.8l1.2,14.8h30.5c18.2,0,35.8-3.4,52.2-10l-7.5-13C399.5,408.1,384.4,411,368.7,411z"
   id="t89" />
<path
   class="st0"
   d="M477,363L477,363c3.5,2.3,8.1,1.3,10.3-2.2c13.9-21.6,21.6-46.7,22.1-73h-14.8c-0.5,23.8-7.7,46.1-19.8,64.9  C472.7,356.2,473.6,360.8,477,363z"
   id="t76" />
<polygon
   class="st0"
   points="283.3,159 334.8,159 336,144.2 282.1,144.2 "
   id="t80" />
<path
   class="st0"
   d="M494.7,285c0,0.1,0,0.2,0,0.3h14.8c0-0.1,0-0.2,0-0.3c0-29.8-9.2-58.1-26.2-81.8l-12.1,8.6  C486,232.4,494.7,257.7,494.7,285z"
   id="t77" />
<path
   class="st0"
   d="M368.7,159c8.4,0,16.6,0.8,24.5,2.4l4.3-14.2c-9.4-1.9-19-2.9-28.8-2.9h-30.1l-1.2,14.8H368.7z"
   id="t79" />
<path
   class="st0"
   d="M469.7,209.7l12.1-8.6c-4.1-5.5-8.6-10.7-13.6-15.7c-19-19-42.6-32-68.2-37.8l-4.3,14.2  C425.8,168.5,451.9,185.8,469.7,209.7z"
   id="t78" />
<polygon
   class="st0"
   points="283.7,411 282.5,425.8 335.6,425.8 334.3,411 "
   id="t88" />
<path
   class="st0"
   d="M247.7,411c-7.1,0-14.1-0.6-21-1.8l-4.3,14.3c8.3,1.5,16.7,2.3,25.3,2.3h32.2l1.2-14.8H247.7z"
   id="t87" />
<path
   class="st0"
   d="M121.7,285c0-9,1-17.9,2.8-26.4l-14.5-3.1c-2,9.6-3.1,19.4-3.1,29.5c0,11.8,1.4,23.4,4.2,34.5l14.5-3.1  C123.1,306.4,121.7,295.8,121.7,285z"
   id="t84" />
<path
   class="st0"
   d="M222.7,161.5l-4.3-14.2c-24.3,5.1-46.8,16.6-65.5,33.7l10.5,10.5C179.8,176.6,200.2,166,222.7,161.5z"
   id="t82" />
<path
   class="st0"
   d="M161.5,193.2L151,182.7c-0.9,0.9-1.9,1.8-2.8,2.7c-18.9,18.9-31.7,42.2-37.6,67.6l14.5,3.1  C130.8,231.6,143.8,209.9,161.5,193.2z"
   id="t83" />
<path
   class="st0"
   d="M126.4,318.9l-14.5,3.1c6.3,23.4,18.7,44.9,36.3,62.6c1.8,1.8,3.7,3.6,5.6,5.3l10.5-10.5  C146.4,363.4,133,342.6,126.4,318.9z"
   id="t85" />
<path
   class="st0"
   d="M166.2,381l-10.5,10.5c18.5,16,40.5,26.8,64.2,31.5l4.3-14.3C202.4,404.7,182.5,394.9,166.2,381z"
   id="t86" />
<path
   class="st0"
   d="M247.7,159h33l-1.2-14.8h-31.7c-9.1,0-18.1,0.9-26.8,2.5l4.3,14.2C232.5,159.7,240.1,159,247.7,159z"
   id="t81" />
<path
   class="st0"
   d="M490.9,372.1L490.9,372.1c3.5,2.3,8.1,1.3,10.3-2.2c4.8-7.5,9-15.5,12.6-23.8c7.8-18.5,12-38,12.3-58.2h-14.8  c-0.5,27.2-8.8,52.6-22.6,74C486.5,365.3,487.5,369.9,490.9,372.1z"
   id="t91" />
<path
   class="st0"
   d="M424.1,416.2l7.5,12.9c18.2-7.9,34.5-19,48.6-33.1c3.6-3.6,7-7.4,10.3-11.3c2.8-3.4,2-8.5-1.7-10.9h0  c-3.1-2.1-7.4-1.5-9.7,1.4C464.4,393,445.6,407.1,424.1,416.2z"
   id="t105" />
<path
   class="st0"
   d="M369.1,427.2h-30.9l1.2,14.8h29.6c20.8,0,41-4,60-11.9l-7.5-13C405.4,423.7,387.7,427.2,369.1,427.2z"
   id="t104" />
<polygon
   class="st0"
   points="282.4,427.2 281.1,442 336.9,442 335.7,427.2 "
   id="t103" />
<path
   class="st0"
   d="M218,145.8l-4.3-14.2c-9.4,2-18.5,5-27.4,8.7c-16.6,7-31.7,16.8-45,28.9l10.5,10.5  C170.1,163.1,192.8,151.1,218,145.8z"
   id="t97" />
<path
   class="st0"
   d="M247.3,427.2c-8.6,0-17.1-0.8-25.3-2.3l-4.3,14.3c9.7,1.9,19.6,2.8,29.6,2.8h31.3l1.2-14.8H247.3z"
   id="t102" />
<path
   class="st0"
   d="M511.4,285c0,0.1,0,0.2,0,0.3h14.8c0-0.1,0-0.2,0-0.3c0-21.2-4.2-41.8-12.3-61.1c-4.5-10.8-10.2-20.9-17-30.3  l-12.1,8.6C501.5,225.5,511.4,254.1,511.4,285z"
   id="t92" />
<path
   class="st0"
   d="M483.2,200.1l12.1-8.6c-4.6-6.2-9.6-12-15.2-17.6c-14.4-14.4-31.2-25.7-49.9-33.6c-8.3-3.5-16.8-6.3-25.5-8.3  l-4.3,14.2C434.1,153.8,463.2,173.3,483.2,200.1z"
   id="t93" />
<path
   class="st0"
   d="M340,128l-1.2,14.8h30.4c9.9,0,19.5,1,28.8,2.9l4.3-14.2c-10.8-2.3-21.9-3.5-33.2-3.5H340z"
   id="t94" />
<path
   class="st0"
   d="M105.1,285c0-10.2,1.1-20.2,3.2-29.8l-14.5-3.1c-2.3,10.7-3.4,21.7-3.4,32.9c0,12.9,1.5,25.6,4.6,38l14.5-3.1  C106.6,308.7,105.1,297,105.1,285z"
   id="t99" />
<polygon
   class="st0"
   points="336.1,142.7 337.4,128 280.7,128 281.9,142.7 "
   id="t95" />
<path
   class="st0"
   d="M110.1,322.4l-14.5,3.1c1.9,7,4.2,13.9,7.1,20.7c7.9,18.7,19.2,35.5,33.6,49.9c1.9,1.9,3.8,3.7,5.8,5.5  l10.5-10.5C132.4,372.9,117.4,349.2,110.1,322.4z"
   id="t100" />
<path
   class="st0"
   d="M149.8,181.5L139.3,171c-1,1-2,2-3,2.9c-14.4,14.4-25.7,31.2-33.6,49.9c-3.5,8.4-6.3,16.9-8.3,25.7l14.5,3.1  C115.2,225,129.8,200.4,149.8,181.5z"
   id="t98" />
<path
   class="st0"
   d="M154.5,392.7L144,403.2c12.6,11,26.7,19.9,42.2,26.4c9.4,4,19.1,7,29,9.1l4.3-14.2  C195,419.6,172.7,408.4,154.5,392.7z"
   id="t101" />
<path
   class="st0"
   d="M247.3,142.7h32l-1.2-14.8h-30.8c-10.6,0-21,1-31.2,3.1l4.3,14.2C229.2,143.6,238.1,142.7,247.3,142.7z"
   id="t96" />
<path
   class="st0"
   d="M247.5,443.9c-10.4,0-20.5-1-30.4-2.9l-4.3,14.2c11.3,2.3,22.9,3.5,34.7,3.5h29.7l1.2-14.8H247.5z"
   id="t117" />
<path
   class="st0"
   d="M504.8,381.1L504.8,381.1c3.5,2.3,8.1,1.3,10.3-2.2c5.4-8.3,10-17.1,13.9-26.4c8.7-20.5,13.3-42.3,13.6-64.7  h-14.8c-0.6,30.5-9.8,59-25.3,83.1C500.4,374.4,501.4,378.9,504.8,381.1z"
   id="t106"
   inkscape:label="#t106" />
<path
   class="st0"
   d="M436.6,124.9c-8.8-3.7-17.8-6.7-26.9-8.9l-4.3,14.2c37.2,8.7,69.3,30.5,91.4,60.3l12.1-8.6  c-5.1-7-10.8-13.6-17-19.8C475.8,146.2,457.2,133.7,436.6,124.9z"
   id="t108" />
<path
   class="st0"
   d="M369,126.1c11.6,0,22.9,1.3,33.9,3.6l4.3-14.2c-12.4-2.8-25.2-4.2-38.2-4.2h-27.6l-1.2,14.8H369z"
   id="t109" />
<polygon
   class="st0"
   points="281,443.9 279.7,458.7 338.3,458.7 337.1,443.9 "
   id="t118" />
<path
   class="st0"
   d="M369,443.9h-29.3l1.2,14.8h28c23.4,0,46.2-4.6,67.6-13.7c0.3-0.1,0.6-0.3,1-0.4l-7.5-12.9  C411.2,439.5,390.6,443.9,369,443.9z"
   id="t119" />
<path
   class="st0"
   d="M527.9,285c0,0.1,0,0.2,0,0.3h14.8c0-0.1,0-0.2,0-0.3c0-23.4-4.6-46.2-13.7-67.6c-5-11.8-11.3-23-18.7-33.3  l-12.1,8.6C516.9,218.7,527.9,250.6,527.9,285z"
   id="t107" />
<path
   class="st0"
   d="M432.5,430.7l7.5,12.9c19.3-8.7,36.8-20.7,51.9-35.8c4.5-4.5,8.7-9.2,12.6-14.1c2.8-3.4,2-8.5-1.7-10.9l0,0  c-3.2-2.1-7.5-1.4-9.9,1.6C476.8,404.3,456.1,420.3,432.5,430.7z"
   id="t120" />
<path
   class="st0"
   d="M138.1,169.8l-10.5-10.5c-1,0.9-2,1.9-2.9,2.9c-15.9,15.9-28.5,34.5-37.2,55.2c-4,9.4-7.1,19-9.3,28.8l14.5,3.1  C99.8,218.4,115.9,190.9,138.1,169.8z"
   id="t113" />
<path
   class="st0"
   d="M213.1,129.8l-4.3-14.2c-9.9,2.2-19.5,5.4-28.9,9.3c-18.6,7.9-35.6,18.8-50.4,32.6L140,168  C160.2,149.4,185.3,136,213.1,129.8z"
   id="t112" />
<path
   class="st0"
   d="M88.6,285c0-11.4,1.2-22.5,3.5-33.3l-14.5-3.1c-2.5,11.9-3.8,24-3.8,36.3c0,14.1,1.7,27.9,5,41.4l14.5-3.1  C90.2,311,88.6,298.2,88.6,285z"
   id="t114" />
<path
   class="st0"
   d="M247.5,126.1H278l-1.2-14.8h-29.2c-12.3,0-24.4,1.3-36.2,3.8l4.3,14.2C225.9,127.2,236.6,126.1,247.5,126.1z"
   id="t111" />
<path
   class="st0"
   d="M93.9,325.8l-14.5,3.1c2.1,8.1,4.8,16,8.1,23.7c8.7,20.7,21.3,39.3,37.2,55.2c1.9,1.9,3.8,3.7,5.7,5.4  l10.5-10.5C118.5,382.4,101.9,355.8,93.9,325.8z"
   id="t115" />
<path
   class="st0"
   d="M142.8,404.4l-10.5,10.5c14.2,12.6,30.1,22.7,47.6,30.1c9.9,4.2,20,7.4,30.4,9.7l4.3-14.2  C187.5,434.7,162.9,422.1,142.8,404.4z"
   id="t116" />
<polygon
   class="st0"
   points="337.5,126.1 338.8,111.3 279.3,111.3 280.5,126.1 "
   id="t110" />
<path
   class="st0"
   d="M247.2,109.8h29.4L275.4,95h-28.2c-13.8,0-27.4,1.5-40.7,4.4l4.3,14.2C222.6,111.1,234.7,109.8,247.2,109.8z"
   id="t126" />
<path
   class="st0"
   d="M208.3,114.1L204,99.9c-10.5,2.4-20.8,5.8-30.8,10c-20.5,8.7-39.1,20.8-55.4,35.9l10.5,10.5  C150.5,135.9,177.9,121,208.3,114.1z"
   id="t127" />
<polygon
   class="st0"
   points="279.6,460.2 278.4,475 339.7,475 338.5,460.2 "
   id="t133" />
<polygon
   class="st0"
   points="338.9,109.8 340.1,95 277.9,95 279.2,109.8 "
   id="t125" />
<path
   class="st0"
   d="M126.4,158.1l-10.5-10.5c-1,1-2.1,2-3.1,3c-17.4,17.4-31.1,37.8-40.7,60.4c-4.4,10.3-7.8,20.9-10.2,31.7  l14.5,3.1C84.2,211.7,102,181.4,126.4,158.1z"
   id="t128" />
<path
   class="st0"
   d="M72,285c0-12.6,1.3-24.9,3.9-36.7l-14.5-3.1c-2.8,13-4.2,26.3-4.2,39.8c0,15.3,1.8,30.3,5.3,44.8l14.5-3.1  C73.7,313.4,72,299.4,72,285z"
   id="t129" />
<path
   class="st0"
   d="M510.2,181l12.1-8.6c-5.7-7.7-11.9-14.9-18.7-21.8c-17.4-17.4-37.8-31.1-60.4-40.7c-9.4-4-19-7.1-28.8-9.5  l-4.3,14.2C450.8,124.3,486,148.3,510.2,181z"
   id="t123" />
<path
   class="st0"
   d="M369.2,460.2H341l1.2,14.8h27c25.6,0,50.5-5,74-14.9c0.9-0.4,1.7-0.7,2.6-1.1l-7.5-12.9  C417.1,455.1,393.8,460.2,369.2,460.2z"
   id="t134" />
<path
   class="st0"
   d="M518.6,390.2L518.6,390.2c3.5,2.3,8.1,1.3,10.3-2.2c5.9-9.2,11.1-18.9,15.4-29c9.5-22.5,14.5-46.4,14.9-71.1  h-14.8c-0.6,33.9-10.8,65.5-28,92.1C514.2,383.4,515.2,388,518.6,390.2z"
   id="t121" />
<path
   class="st0"
   d="M440.7,445l7.5,12.9c20.6-9.4,39.3-22.4,55.4-38.5c5.2-5.2,10.2-10.8,14.7-16.5c2.7-3.4,1.9-8.5-1.7-10.9l0,0  c-3.2-2.1-7.5-1.4-9.9,1.6C489.3,415.6,466.7,433.3,440.7,445z"
   id="t135" />
<path
   class="st0"
   d="M131.1,416.1l-10.5,10.5c15.6,14,33.3,25.2,52.7,33.4c10.5,4.4,21.3,7.9,32.3,10.4l4.3-14.2  C180.1,449.7,153.1,435.6,131.1,416.1z"
   id="t131" />
<path
   class="st0"
   d="M77.6,329.2l-14.5,3.1c2.3,9.1,5.3,17.9,9,26.6c9.6,22.6,23.3,42.9,40.7,60.4c1.9,1.9,3.8,3.8,5.8,5.6  l10.5-10.5C104.5,391.9,86.3,362.5,77.6,329.2z"
   id="t130" />
<path
   class="st0"
   d="M369.2,109.8c13.2,0,26,1.5,38.3,4.2l4.3-14.2C398,96.6,383.7,95,369.2,95h-26.5l-1.2,14.8H369.2z"
   id="t124" />
<path
   class="st0"
   d="M247.2,460.2c-11.9,0-23.6-1.2-34.8-3.5L208,471c12.8,2.7,25.9,4,39.2,4h28.6l1.2-14.8H247.2z"
   id="t132" />
<path
   class="st0"
   d="M544.3,211c-5.5-13-12.3-25.2-20.5-36.6l-12.1,8.6c20.6,28.7,32.8,63.9,32.8,101.9c0,0.1,0,0.2,0,0.3h14.8  c0-0.1,0-0.2,0-0.3C559.3,259.3,554.2,234.5,544.3,211z"
   id="t122" />
<path
   class="st0"
   d="M55.2,285.1c0-13.8,1.5-27.3,4.3-40.3l-14.5-3.1c-3,14.1-4.5,28.6-4.5,43.3c0,16.4,1.9,32.6,5.7,48.3l14.5-3.1  C57,315.7,55.2,300.6,55.2,285.1z"
   id="t144"
   inkscape:label="#t144" />
<path
   class="st0"
   d="M523.5,171.5l12.1-8.6c-6.2-8.4-13-16.3-20.5-23.8c-19-19-41-33.8-65.6-44.2c-9.9-4.2-20.1-7.6-30.4-10.2  l-4.3,14.2C459,109.7,497.3,136,523.5,171.5z"
   id="t138" />
<path
   class="st0"
   d="M119.3,428l-10.5,10.5c17.1,15.4,36.5,27.8,57.7,36.7c11.1,4.7,22.6,8.4,34.3,11.1l4.3-14.2  C172.6,464.8,143.2,449.4,119.3,428z"
   id="t146" />
<path
   class="st0"
   d="M560.9,285.1c0,0.1,0,0.2,0,0.3h14.8c0-0.1,0-0.2,0-0.3c0-27.9-5.5-54.9-16.2-80.3c-6-14.1-13.4-27.4-22.2-39.7  l-12.1,8.6C547.6,205,560.9,243.5,560.9,285.1z"
   id="t137" />
<path
   class="st0"
   d="M61.2,332.7l-14.5,3.1c2.5,10.1,5.9,19.9,9.9,29.6C67,390,81.9,412,100.8,431c2,2,4,3.9,6,5.8l10.5-10.5  C90.4,401.5,70.5,369.2,61.2,332.7z"
   id="t145" />
<path
   class="st0"
   d="M575.6,287.9h-14.8c-0.5,37.2-11.7,71.9-30.7,101.1c-2.2,3.4-1.2,8,2.2,10.2l0,0c3.5,2.3,8.1,1.2,10.3-2.2  c6.4-10,12-20.5,16.7-31.6C569.8,340.8,575.3,314.7,575.6,287.9z"
   id="t136" />
<path
   class="st0"
   d="M369.2,476.7h-26.8l1.2,14.8h25.6c27.9,0,54.9-5.5,80.3-16.2c1.5-0.6,3-1.3,4.5-2l-7.5-12.9  C422.9,470.8,396.8,476.7,369.2,476.7z"
   id="t149" />
<polygon
   class="st0"
   points="340.3,93.4 341.5,78.7 276.6,78.7 277.8,93.4 "
   id="t140" />
<path
   class="st0"
   d="M114.7,146.4l-10.5-10.5c-1.1,1.1-2.2,2.2-3.3,3.3c-19,19-33.8,41-44.2,65.6c-4.7,11.2-8.5,22.7-11.1,34.5  l14.5,3.1C68.5,205,87.9,171.9,114.7,146.4z"
   id="t143" />
<path
   class="st0"
   d="M246.8,93.4h28.5L274,78.7h-27.2c-15.3,0-30.4,1.7-45,4.9l4.3,14.2C219.2,94.9,232.8,93.4,246.8,93.4z"
   id="t141" />
<path
   class="st0"
   d="M246.8,476.7c-13.4,0-26.6-1.4-39.2-4l-4.3,14.2c14.2,3.1,28.8,4.6,43.6,4.6h27.7l1.2-14.8H246.8z"
   id="t147" />
<path
   class="st0"
   d="M369.2,93.4c14.8,0,29.2,1.7,43.1,4.9l4.3-14.2c-15.4-3.6-31.3-5.5-47.4-5.5h-25.2l-1.2,14.8H369.2z"
   id="t139" />
<path
   class="st0"
   d="M203.5,98.3l-4.3-14.2c-11.2,2.6-22.1,6.2-32.8,10.7c-22.4,9.5-42.7,22.6-60.4,39.2l10.5,10.5  C140.6,122.3,170.5,106,203.5,98.3z"
   id="t142" />
<polygon
   class="st0"
   points="278.2,476.7 277,491.4 341.1,491.4 339.8,476.7 "
   id="t148" />
<path
   class="st0"
   d="M449,459.3l7.5,12.9c21.8-10.2,41.6-24,58.8-41.2c6.1-6.1,11.7-12.5,17-19.2c2.7-3.4,1.9-8.4-1.8-10.8l0,0  c-3.3-2.1-7.6-1.4-10,1.7C501.6,426.8,477.1,446.4,449,459.3z"
   id="t150" />
</svg>